<svg width="63" height="63" viewBox="0 0 63 63" fill="none" xmlns="http://www.w3.org/2000/svg">
<path d="M5.25 7.875H21C23.7848 7.875 26.4555 8.98125 28.4246 10.9504C30.3938 12.9195 31.5 15.5902 31.5 18.375V55.125C31.5 53.0364 30.6703 51.0334 29.1935 49.5565C27.7166 48.0797 25.7136 47.25 23.625 47.25H5.25V7.875Z" stroke="black" stroke-width="2" stroke-linecap="round" stroke-linejoin="round"/>
<path d="M57.75 7.875H42C39.2152 7.875 36.5445 8.98125 34.5754 10.9504C32.6062 12.9195 31.5 15.5902 31.5 18.375V55.125C31.5 53.0364 32.3297 51.0334 33.8065 49.5565C35.2834 48.0797 37.2864 47.25 39.375 47.25H57.75V7.875Z" stroke="black" stroke-width="2" stroke-linecap="round" stroke-linejoin="round"/>
</svg>
