<svg width="119" height="119" viewBox="0 0 25 25" fill="none" xmlns="http://www.w3.org/2000/svg">
<g clip-path="url(#clip0_112_205)">
<path d="M17.7474 21.5465V19.5465C17.7474 18.4856 17.326 17.4682 16.5759 16.7181C15.8257 15.9679 14.8083 15.5465 13.7474 15.5465H5.74744C4.68657 15.5465 3.66915 15.9679 2.91901 16.7181C2.16886 17.4682 1.74744 18.4856 1.74744 19.5465V21.5465" stroke="#EE6B6B" stroke-width="1.5" stroke-linecap="round" stroke-linejoin="round"/>
<path d="M9.74744 11.5465C11.9566 11.5465 13.7474 9.75565 13.7474 7.54651C13.7474 5.33737 11.9566 3.54651 9.74744 3.54651C7.5383 3.54651 5.74744 5.33737 5.74744 7.54651C5.74744 9.75565 7.5383 11.5465 9.74744 11.5465Z" stroke="#EE6B6B" stroke-width="1.5" stroke-linecap="round" stroke-linejoin="round"/>
<path d="M23.7474 21.5465V19.5465C23.7468 18.6602 23.4518 17.7993 22.9088 17.0988C22.3658 16.3984 21.6056 15.8981 20.7474 15.6765" stroke="#EE6B6B" stroke-width="1.5" stroke-linecap="round" stroke-linejoin="round"/>
<path d="M16.7474 3.67651C17.6079 3.89681 18.3705 4.39721 18.9151 5.09882C19.4597 5.80043 19.7553 6.66334 19.7553 7.55151C19.7553 8.43968 19.4597 9.30259 18.9151 10.0042C18.3705 10.7058 17.6079 11.2062 16.7474 11.4265" stroke="#EE6B6B" stroke-width="1.5" stroke-linecap="round" stroke-linejoin="round"/>
</g>
<defs>
<clipPath id="clip0_112_205">
<rect width="24" height="24" fill="white" transform="translate(0.747437 0.546509)"/>
</clipPath>
</defs>
</svg>
