<svg width="1440" height="327" viewBox="0 0 1440 327" fill="none" xmlns="http://www.w3.org/2000/svg">
<path fill-rule="evenodd" clip-rule="evenodd" d="M-46 148.636L-21.2333 141.205C3.53333 133.773 53.0667 118.909 102.6 133.773C152.133 148.636 201.667 193.227 251.2 193.227C300.733 193.227 350.267 148.636 399.8 141.205C449.333 133.773 498.867 163.5 548.4 163.5C597.933 163.5 647.467 133.773 697 104.045C746.533 74.3182 796.067 44.5909 845.6 52.0227C895.133 59.4545 944.667 104.045 994.2 89.1818C1043.73 74.3182 1093.27 0 1142.8 0C1192.33 0 1241.87 74.3182 1291.4 111.477C1340.93 148.636 1390.47 148.636 1415.23 148.636H1440V327H1415.23C1390.47 327 1340.93 327 1291.4 327C1241.87 327 1192.33 327 1142.8 327C1093.27 327 1043.73 327 994.2 327C944.667 327 895.133 327 845.6 327C796.067 327 746.533 327 697 327C647.467 327 597.933 327 548.4 327C498.867 327 449.333 327 399.8 327C350.267 327 300.733 327 251.2 327C201.667 327 152.133 327 102.6 327C53.0667 327 3.53333 327 -21.2333 327H-46V148.636Z" fill="#C9C4B5"/>
</svg>
